<svg class="ldi-lq510q" width="100%" height="100%" xmlns="http://www.w3.org/2000/svg" xmlns:xlink="http://www.w3.org/1999/xlink" viewBox="0 0 100 100" preserveAspectRatio="xMidYMid"><!--?xml version="1.0" encoding="utf-8"?--><!--Generator: Adobe Illustrator 21.0.0, SVG Export Plug-In . SVG Version: 6.00 Build 0)--><svg version="1.1" id="Layer_1" xmlns="http://www.w3.org/2000/svg" xmlns:xlink="http://www.w3.org/1999/xlink" x="0px" y="0px" viewBox="0 0 100 100" style="transform-origin: 50px 50px 0px;" xml:space="preserve" class=""><g class="" style="transform-origin: 50px 50px 0px; transform: scale(0.6);"><g class="" style="transform-origin: 50px 50px 0px;"><style type="text/css" class="ld ld-breath" style="transform-origin: 50px 50px 0px; animation-duration: 1s; animation-delay: -1s;">.st0{fill:#999998;} .st1{fill:#323232;} .st2{fill:#CCCCCB;} .st3{fill:#ACBD81;} .st4{fill:#849B87;}</style><g class="ld ld-breath" style="transform-origin: 50px 50px 0px; animation-duration: 1s; animation-delay: -0.923077s;"><path id="XMLID_787_" class="st1" d="M50,78.902c-0.499,0-0.998-0.2-1.365-0.601l-31.21-25.24h-5.568 c-1.612,0-2.455,1.916-1.365,3.104l38.144,32.803c0.367,0.4,0.866,0.601,1.365,0.601c0.499,0,0.998-0.2,1.365-0.601l38.144-32.803 c1.089-1.188,0.247-3.104-1.365-3.104h-5.568l-31.21,25.24C50.998,78.702,50.499,78.902,50,78.902z" fill="#64533b" style="fill: rgb(100, 83, 59);"></path></g><g class="ld ld-breath" style="transform-origin: 50px 50px 0px; animation-duration: 1s; animation-delay: -0.846154s;"><path id="XMLID_786_" class="st0" d="M50,57.569c-0.499,0-0.998-0.2-1.365-0.601l-31.21-25.24h-5.568 c-1.612,0-2.455,1.916-1.365,3.104l38.144,32.803c0.367,0.4,0.866,0.601,1.365,0.601c0.499,0,0.998-0.2,1.365-0.601l38.144-32.803 c1.089-1.188,0.247-3.104-1.365-3.104h-5.568l-31.21,25.24C50.998,57.369,50.499,57.569,50,57.569z" fill="#80a352" style="fill: rgb(128, 163, 82);"></path></g><g class="ld ld-breath" style="transform-origin: 50px 50px 0px; animation-duration: 1s; animation-delay: -0.769231s;"><path id="XMLID_785_" class="st2" d="M50,36.21c-0.499,0-0.998-0.2-1.365-0.601l-31.21-25.24h-5.568 c-1.612,0-2.455,1.916-1.365,3.104l38.144,32.803c0.367,0.4,0.866,0.601,1.365,0.601c0.499,0,0.998-0.2,1.365-0.601l38.144-32.803 c1.089-1.188,0.247-3.104-1.365-3.104h-5.568l-31.21,25.24C50.998,36.01,50.499,36.21,50,36.21z" fill="#cfd7cc" style="fill: rgb(207, 215, 204);"></path></g><metadata xmlns:d="https://loading.io/stock/" class="ld ld-breath" style="transform-origin: 50px 50px 0px; animation-duration: 1s; animation-delay: -0.692308s;">
<d:name class="ld ld-breath" style="transform-origin: 50px 50px 0px; animation-duration: 1s; animation-delay: -0.615385s;">down</d:name>
<d:tags class="ld ld-breath" style="transform-origin: 50px 50px 0px; animation-duration: 1s; animation-delay: -0.538462s;">south,download,bottom,direction,way,dart,chevron,down,arrow</d:tags>
<d:license class="ld ld-breath" style="transform-origin: 50px 50px 0px; animation-duration: 1s; animation-delay: -0.461538s;">cc-by</d:license>
<d:slug class="ld ld-breath" style="transform-origin: 50px 50px 0px; animation-duration: 1s; animation-delay: -0.384615s;">lq510q</d:slug>
</metadata></g></g><style type="text/css" class="ld ld-breath" style="transform-origin: 50px 50px 0px; animation-duration: 1s; animation-delay: -0.307692s;">path,ellipse,circle,rect,polygon,polyline,line { stroke-width: 0; }@keyframes ld-breath {
  0% {
    -webkit-transform: scale(0.86);
    transform: scale(0.86);
  }
  50% {
    -webkit-transform: scale(1.06);
    transform: scale(1.06);
  }
  100% {
    -webkit-transform: scale(0.86);
    transform: scale(0.86);
  }
}
@-webkit-keyframes ld-breath {
  0% {
    -webkit-transform: scale(0.86);
    transform: scale(0.86);
  }
  50% {
    -webkit-transform: scale(1.06);
    transform: scale(1.06);
  }
  100% {
    -webkit-transform: scale(0.86);
    transform: scale(0.86);
  }
}
.ld.ld-breath {
  -webkit-animation: ld-breath 1s infinite;
  animation: ld-breath 1s infinite;
}
</style></svg></svg>